<?xml version="1.0" encoding="utf-8"?>
<!-- Generator: Adobe Illustrator 23.0.4, SVG Export Plug-In . SVG Version: 6.00 Build 0)  -->
<svg version="1.1" id="Layer_1" xmlns="http://www.w3.org/2000/svg" xmlns:xlink="http://www.w3.org/1999/xlink" x="0px" y="0px"
	 viewBox="0 0 70 16" style="enable-background:new 0 0 70 16;" xml:space="preserve">
<style type="text/css">
	.st0{fill:#FF4E59;}
</style>
<g>
	<g>
		<g>
			<path class="st0" d="M22.8,5.1c0.9,0,1.6,0.6,1.6,1.5v0.6h-1.2V6.6c0-0.3-0.1-0.4-0.4-0.4h-0.6c-0.3,0-0.4,0.1-0.4,0.4v3.6
				c0,0.3,0.1,0.4,0.4,0.4h0.6c0.3,0,0.4-0.1,0.4-0.4V9.6h1.2v0.6c0,0.9-0.7,1.5-1.6,1.5h-0.6c-0.9,0-1.6-0.6-1.6-1.5V6.6
				c0-0.9,0.7-1.5,1.6-1.5H22.8z"/>
			<path class="st0" d="M28.7,5.4l-0.5,1c-0.2-0.2-0.5-0.3-0.8-0.3c-0.6,0-0.9,0.4-0.9,1.2v4.4h-1.2V5.1h1l0.1,0.6
				C26.7,5.3,27.1,5,27.6,5C28,5,28.4,5.2,28.7,5.4z"/>
			<path class="st0" d="M31.5,5.1c0.9,0,1.6,0.6,1.6,1.5v2.2h-2.7v1.4c0,0.3,0.1,0.4,0.4,0.4h0.6c0.3,0,0.4-0.1,0.4-0.4V9.6h1.2v0.6
				c0,0.9-0.7,1.5-1.6,1.5h-0.6c-0.9,0-1.6-0.6-1.6-1.5V6.6c0-0.9,0.7-1.5,1.6-1.5H31.5z M31.9,6.6c0-0.3-0.1-0.4-0.4-0.4h-0.6
				c-0.3,0-0.4,0.1-0.4,0.4v1.1h1.5V6.6z"/>
			<path class="st0" d="M36.2,5.1c0.9,0,1.6,0.6,1.6,1.5v5.1h-1l-0.1-0.5c-0.3,0.3-0.6,0.5-1.1,0.5h-0.1c-0.9,0-1.6-0.6-1.6-1.6V9.3
				c0-0.9,0.7-1.5,1.6-1.5h1.1V6.6c0-0.3-0.1-0.4-0.4-0.4h-0.5c-0.3,0-0.4,0.1-0.4,0.4V7h-1.2V6.6c0-0.9,0.7-1.5,1.6-1.5H36.2z
				 M35.8,10.6c0.7,0,0.9-0.3,0.9-1.1V8.9h-1.1c-0.3,0-0.4,0.1-0.4,0.4v0.8C35.1,10.5,35.4,10.6,35.8,10.6z"/>
			<path class="st0" d="M39.2,3.5h1.2v1.6h0.8v1.1h-0.8v4c0,0.3,0.1,0.4,0.4,0.4H41v1.1h-0.2c-0.9,0-1.6-0.6-1.6-1.5v-4h-0.7V5.1
				h0.7V3.5z"/>
			<path class="st0" d="M41.7,4c0-0.4,0.2-0.7,0.7-0.7c0.4,0,0.7,0.2,0.7,0.7c0,0.4-0.2,0.7-0.7,0.7C42,4.6,41.7,4.4,41.7,4z
				 M41.8,11.7H43V5.1h-1.2V11.7z"/>
			<path class="st0" d="M45.9,9.5l0.9-4.5H48l-1.5,6.7h-1.3l-1.5-6.7H45L45.9,9.5z"/>
			<path class="st0" d="M50.9,5.1c0.9,0,1.6,0.6,1.6,1.5v2.2h-2.7v1.4c0,0.3,0.1,0.4,0.4,0.4h0.6c0.3,0,0.4-0.1,0.4-0.4V9.6h1.2v0.6
				c0,0.9-0.7,1.5-1.6,1.5h-0.6c-0.9,0-1.6-0.6-1.6-1.5V6.6c0-0.9,0.7-1.5,1.6-1.5H50.9z M51.4,6.6c0-0.3-0.1-0.4-0.4-0.4h-0.6
				c-0.3,0-0.4,0.1-0.4,0.4v1.1h1.5V6.6z"/>
			<path class="st0" d="M57.2,7h-1.2V6.6c0-0.3-0.1-0.4-0.4-0.4H55c-0.3,0-0.4,0.1-0.4,0.4v0.5c0,0.2,0.1,0.3,0.2,0.4l1.7,0.8
				c0.7,0.3,0.8,0.7,0.8,1.3v0.6c0,0.9-0.7,1.5-1.6,1.5H55c-0.9,0-1.6-0.6-1.6-1.5V9.8h1.2v0.4c0,0.3,0.1,0.4,0.4,0.4h0.6
				c0.3,0,0.4-0.1,0.4-0.4V9.7c0-0.2-0.1-0.4-0.2-0.4l-1.7-0.8c-0.7-0.3-0.8-0.7-0.8-1.3V6.6c0-0.9,0.7-1.5,1.6-1.5h0.6
				c0.9,0,1.6,0.6,1.6,1.5V7z"/>
			<path class="st0" d="M58.1,11.1c0-0.4,0.2-0.7,0.7-0.7c0.4,0,0.7,0.2,0.7,0.7c0,0.4-0.2,0.7-0.7,0.7
				C58.4,11.7,58.1,11.5,58.1,11.1z"/>
			<path class="st0" d="M60.5,3.5h1.2v8.2h-1.2V3.5z"/>
			<path class="st0" d="M65,5.1c0.9,0,1.6,0.6,1.6,1.5v5.1h-1l-0.1-0.5c-0.3,0.3-0.6,0.5-1.1,0.5h-0.1c-0.9,0-1.6-0.6-1.6-1.6V9.3
				c0-0.9,0.7-1.5,1.6-1.5h1.1V6.6c0-0.3-0.1-0.4-0.4-0.4h-0.5c-0.3,0-0.4,0.1-0.4,0.4V7h-1.2V6.6c0-0.9,0.7-1.5,1.6-1.5H65z
				 M64.5,10.6c0.7,0,0.9-0.3,0.9-1.1V8.9h-1.1c-0.3,0-0.4,0.1-0.4,0.4v0.8C63.9,10.5,64.1,10.6,64.5,10.6z"/>
			<path class="st0" d="M67.9,3.5h1.2v1.6h0.8v1.1h-0.8v4c0,0.3,0.1,0.4,0.4,0.4h0.2v1.1h-0.2c-0.9,0-1.6-0.6-1.6-1.5v-4h-0.7V5.1
				h0.7V3.5z"/>
		</g>
		<g>
			<path class="st0" d="M9.5,4C8.8,4,8.3,3.5,8.3,2.8s0.6-1.3,1.3-1.3c0,0,0,0,0,0V0.1c0,0,0,0,0,0C8,0.1,6.8,1.3,6.8,2.8
				S8,5.4,9.5,5.4c0,0,0,0,0,0L9.5,4C9.5,4,9.5,4,9.5,4z"/>
			<path class="st0" d="M6.3,4.4C5.8,4.9,5,4.9,4.5,4.4S4,3.1,4.5,2.6c0,0,0,0,0,0l-1-1c0,0,0,0,0,0c-1,1-1,2.7,0,3.8s2.7,1,3.8,0
				c0,0,0,0,0,0L6.3,4.4C6.3,4.4,6.3,4.4,6.3,4.4z"/>
			<path class="st0" d="M4.3,6.9c0,0.7-0.6,1.3-1.3,1.3S1.8,7.6,1.8,6.9c0,0,0,0,0,0H0.4c0,0,0,0,0,0c0,1.5,1.2,2.7,2.7,2.7
				s2.7-1.2,2.7-2.7c0,0,0,0,0,0L4.3,6.9C4.3,6.9,4.3,6.9,4.3,6.9z"/>
			<path class="st0" d="M4.7,10.1c0.5,0.5,0.5,1.3,0,1.8c-0.5,0.5-1.3,0.5-1.8,0c0,0,0,0,0,0l-1,1c0,0,0,0,0,0c1,1,2.7,1,3.8,0
				s1-2.7,0-3.8c0,0,0,0,0,0L4.7,10.1C4.7,10.1,4.7,10.1,4.7,10.1z"/>
			<path class="st0" d="M7.2,12.1c0.7,0,1.3,0.6,1.3,1.3c0,0.7-0.6,1.3-1.3,1.3c0,0,0,0,0,0v1.4c0,0,0,0,0,0c1.5,0,2.7-1.2,2.7-2.7
				s-1.2-2.7-2.7-2.7c0,0,0,0,0,0L7.2,12.1C7.2,12.1,7.2,12.1,7.2,12.1z"/>
			<path class="st0" d="M10.4,11.7c0.5-0.5,1.3-0.5,1.8,0c0.5,0.5,0.5,1.3,0,1.8c0,0,0,0,0,0l1,1c0,0,0,0,0,0c1-1,1-2.7,0-3.8
				s-2.7-1-3.8,0c0,0,0,0,0,0L10.4,11.7C10.4,11.8,10.4,11.8,10.4,11.7z"/>
			<path class="st0" d="M12.4,9.2C12.4,8.5,13,8,13.7,8C14.4,8,15,8.5,15,9.2c0,0,0,0,0,0h1.4c0,0,0,0,0,0c0-1.5-1.2-2.7-2.7-2.7
				S11,7.7,11,9.2c0,0,0,0,0,0L12.4,9.2C12.4,9.2,12.4,9.2,12.4,9.2z"/>
			<path class="st0" d="M12.1,6c-0.5-0.5-0.5-1.3,0-1.8c0.5-0.5,1.3-0.5,1.8,0c0,0,0,0,0,0l1-1c0,0,0,0,0,0c-1-1-2.7-1-3.8,0
				S10,6,11,7c0,0,0,0,0,0L12.1,6C12.1,6,12.1,6,12.1,6z"/>
		</g>
	</g>
</g>
</svg>
